<?xml version="1.0" standalone="no"?>
<!DOCTYPE svg PUBLIC "-//W3C//DTD SVG 20010904//EN"
 "http://www.w3.org/TR/2001/REC-SVG-20010904/DTD/svg10.dtd">
<svg version="1.0" xmlns="http://www.w3.org/2000/svg"
 width="310.000000pt" height="310.000000pt" viewBox="0 0 310.000000 310.000000"
 preserveAspectRatio="xMidYMid meet">
<metadata>
Created by potrace 1.14, written by Peter Selinger 2001-2017
</metadata>
<g transform="translate(0.000000,310.000000) scale(0.100000,-0.100000)"
fill="#000000" stroke="none">
<path d="M1045 3091 c-3 -6 -10 -9 -15 -6 -5 3 -11 1 -15 -5 -4 -6 -12 -7 -24
0 -12 6 -21 6 -28 -1 -5 -5 -24 -11 -41 -12 -23 -1 -31 -6 -27 -16 4 -11 3
-12 -10 -1 -11 9 -15 9 -15 1 0 -7 -4 -10 -9 -6 -5 3 -17 -2 -25 -11 -9 -8
-16 -13 -16 -9 0 3 -10 -1 -23 -10 -13 -8 -26 -12 -29 -9 -4 3 -11 -4 -18 -15
-6 -12 -14 -19 -19 -17 -9 6 -6 -48 4 -63 3 -6 2 -11 -4 -11 -6 0 -6 -11 -1
-30 6 -21 5 -30 -3 -30 -7 0 -6 -4 3 -10 11 -7 11 -10 2 -10 -10 0 -10 -5 -2
-20 8 -14 8 -20 0 -20 -6 0 -8 -5 -5 -11 11 -17 11 -89 0 -89 -5 0 -3 -5 5
-10 11 -7 11 -10 2 -10 -10 0 -10 -5 -2 -20 8 -14 8 -20 0 -20 -8 0 -8 -6 0
-20 6 -12 7 -20 1 -20 -6 0 -6 -11 -1 -28 4 -16 4 -36 -1 -45 -6 -9 -5 -18 1
-22 9 -6 -20 -44 -31 -39 -3 2 -18 -13 -34 -32 -16 -19 -33 -34 -37 -34 -13 0
-38 -26 -38 -39 0 -6 -7 -7 -17 -4 -11 4 -14 3 -9 -5 4 -7 1 -15 -8 -18 -9 -3
-16 -12 -16 -20 0 -8 -3 -13 -8 -11 -4 1 -8 -2 -9 -6 -1 -4 -12 -17 -25 -28
-13 -11 -16 -17 -8 -13 8 3 4 -5 -10 -18 -14 -14 -28 -24 -32 -21 -4 2 -5 -4
-1 -13 4 -11 2 -15 -4 -11 -6 4 -14 -1 -17 -11 -11 -30 -33 -62 -38 -56 -6 6
-34 -66 -30 -78 1 -4 -4 -5 -11 -2 -8 3 -14 -1 -14 -8 -1 -23 -8 -43 -17 -50
-5 -3 -11 -15 -12 -25 -2 -9 -7 -19 -13 -21 -5 -2 -7 -10 -4 -18 3 -8 0 -14
-6 -14 -7 0 -11 -6 -10 -12 3 -26 -1 -39 -10 -33 -6 3 -8 -4 -6 -15 2 -11 -1
-20 -6 -20 -6 0 -7 -5 -4 -10 3 -6 1 -10 -6 -10 -8 0 -9 -3 0 -14 9 -10 8 -16
-4 -26 -8 -7 -12 -16 -9 -22 3 -5 0 -15 -6 -23 -7 -8 -10 -22 -6 -30 3 -8 1
-15 -4 -15 -5 0 -7 -6 -4 -14 3 -8 0 -17 -6 -21 -8 -5 -8 -10 0 -20 8 -9 7
-17 -4 -28 -11 -11 -12 -17 -3 -26 8 -8 8 -11 -1 -11 -10 0 -10 -5 -1 -21 8
-16 8 -20 0 -14 -8 4 -10 -1 -7 -18 2 -14 2 -28 -2 -31 -9 -9 -10 -46 -1 -46
4 0 6 -11 5 -24 0 -13 -4 -22 -8 -19 -5 2 -8 -1 -8 -6 0 -6 3 -11 8 -11 4 0 8
-21 8 -47 3 -103 8 -143 17 -143 5 0 3 -8 -4 -17 -8 -9 -9 -14 -3 -10 7 4 11
-8 12 -35 1 -23 5 -44 10 -47 8 -7 11 -20 14 -56 1 -14 6 -25 10 -25 4 0 7 -3
7 -7 -5 -28 2 -53 13 -47 7 5 9 2 5 -9 -3 -8 1 -21 9 -28 9 -7 13 -21 11 -31
-3 -10 -1 -18 5 -18 5 0 6 -5 3 -10 -3 -6 -1 -10 4 -10 6 0 11 -8 11 -19 0
-10 7 -24 15 -31 8 -7 12 -16 9 -21 -3 -5 0 -9 5 -9 6 0 10 -3 10 -7 -3 -21 2
-33 16 -33 8 0 14 -3 13 -7 -4 -14 13 -53 23 -53 5 0 9 -7 9 -15 0 -8 5 -15
11 -15 5 0 7 -4 4 -10 -3 -5 -1 -10 5 -10 6 0 8 -4 5 -10 -4 -6 1 -7 11 -3 12
4 15 3 10 -5 -4 -6 2 -19 14 -29 11 -10 20 -23 20 -31 0 -7 5 -10 10 -7 6 3
10 1 10 -4 0 -17 42 -61 57 -61 8 0 11 -5 8 -10 -3 -6 -1 -10 5 -10 6 0 9 -4
6 -9 -3 -5 5 -12 19 -15 14 -4 24 -12 22 -19 -1 -6 4 -11 11 -9 6 1 12 -5 12
-14 0 -8 5 -12 10 -9 6 3 10 -1 10 -10 0 -9 5 -13 10 -10 6 3 13 -1 16 -9 3
-9 12 -16 20 -16 8 0 14 -4 14 -10 0 -5 7 -10 15 -10 7 0 18 -6 22 -12 9 -15
41 -36 66 -44 9 -4 17 -10 17 -14 0 -10 52 -34 69 -31 7 1 10 -2 7 -7 -3 -5
12 -15 34 -22 22 -7 37 -17 33 -23 -3 -5 3 -6 16 -2 14 4 21 2 21 -6 0 -7 3
-9 7 -6 3 4 15 -1 26 -10 11 -10 17 -12 12 -4 -5 9 1 7 19 -4 14 -10 26 -14
26 -10 0 4 7 2 15 -5 8 -7 15 -9 15 -5 0 4 8 1 17 -6 15 -12 16 -12 8 1 -6 12
-5 13 6 2 7 -6 21 -12 30 -12 10 0 20 -6 22 -12 4 -10 6 -9 6 1 1 11 6 10 26
-3 15 -10 25 -12 25 -6 0 6 5 8 11 5 6 -4 27 -8 47 -10 24 -2 36 -7 34 -16 -2
-9 0 -10 11 -1 8 7 17 9 20 5 10 -9 57 -10 57 -1 0 4 5 8 11 8 5 0 8 -3 6 -8
-3 -4 5 -7 18 -7 13 0 21 3 19 7 -5 8 17 5 34 -5 7 -5 12 -3 12 4 0 8 4 8 15
-1 11 -9 15 -9 15 -1 0 9 5 9 20 1 15 -8 20 -8 20 1 0 8 4 9 13 0 8 -6 16 -8
20 -5 6 6 46 14 85 17 12 1 22 7 22 12 0 6 5 3 10 -5 6 -10 10 -11 10 -2 0 6
5 12 11 12 5 0 7 -6 3 -13 -6 -8 -3 -8 9 1 9 8 22 10 28 6 8 -4 9 -3 5 4 -6
11 27 18 57 13 4 0 7 3 7 7 0 4 8 9 18 10 34 4 52 8 58 15 4 4 16 7 26 7 10 0
18 5 18 11 0 5 5 7 10 4 6 -3 10 -2 10 4 0 6 7 8 15 5 8 -4 15 -1 15 5 0 6 9
11 20 11 11 0 20 5 20 10 0 6 3 9 8 8 4 -1 17 3 30 10 12 7 22 10 22 6 0 -3 9
4 21 17 11 13 18 18 14 12 -11 -22 14 -14 25 7 6 11 15 18 20 15 5 -3 13 3 19
12 6 10 11 14 11 8 0 -5 5 -3 10 5 5 8 13 15 17 15 9 0 27 14 68 53 14 13 25
20 25 16 0 -4 9 4 21 17 12 13 25 23 30 21 5 -1 9 3 9 9 0 6 7 17 15 25 8 9
15 13 15 9 0 -3 6 0 14 7 8 7 13 15 13 18 -1 3 15 22 36 43 20 22 34 44 30 50
-3 7 -3 9 1 5 10 -8 36 14 29 25 -2 4 3 10 11 13 9 3 13 11 9 17 -4 6 0 8 9 5
8 -4 15 0 16 8 1 8 3 21 4 29 1 8 5 12 9 10 4 -3 13 8 21 25 7 16 16 30 20 30
5 0 7 3 7 7 -3 20 2 34 10 29 5 -4 12 7 16 24 4 17 13 37 22 45 10 11 11 15 2
15 -8 0 -6 5 5 13 9 7 18 22 19 35 0 12 5 22 9 22 4 0 5 7 2 15 -4 8 -1 15 5
15 6 0 10 3 10 8 -3 19 2 33 11 27 6 -3 7 1 4 10 -4 8 0 23 7 32 12 14 12 16
-1 8 -13 -8 -13 -7 -1 8 7 9 10 17 6 17 -4 0 -3 6 2 13 6 6 9 22 8 34 -1 13 3
23 8 23 5 0 7 11 5 25 -3 14 -1 25 4 25 6 0 8 6 5 13 -3 8 -1 20 3 27 5 8 4
22 -1 31 -6 12 -5 20 2 25 6 3 9 15 6 25 -3 10 0 20 7 23 8 3 8 5 -1 5 -8 1
-9 10 -3 30 5 19 4 33 -3 40 -8 8 -7 11 3 11 11 0 11 3 2 12 -7 7 -8 17 -1 30
7 13 6 18 -3 18 -9 0 -9 3 2 10 8 5 10 10 4 10 -6 0 -10 10 -9 23 1 12 -3 28
-9 36 -8 11 -8 13 0 8 7 -4 11 4 10 23 -1 17 -5 30 -9 30 -5 0 -7 8 -6 18 4
39 -1 63 -12 56 -8 -5 -8 -1 0 14 8 14 8 23 1 27 -6 4 -9 14 -8 23 2 9 -2 16
-8 15 -6 -1 -11 4 -11 12 0 8 5 11 11 7 6 -3 3 7 -8 22 -10 16 -13 25 -7 22 7
-5 9 -1 5 8 -3 9 -9 16 -13 16 -4 0 -8 7 -9 15 -1 8 -3 22 -4 30 -1 8 -5 15
-10 15 -5 0 -6 5 -3 10 3 6 2 10 -4 10 -6 0 -7 7 -4 17 5 12 3 14 -7 8 -10 -6
-12 -4 -7 7 3 9 0 21 -6 27 -6 6 -8 11 -4 11 4 0 -1 10 -13 22 -11 12 -20 29
-20 38 0 9 -9 26 -19 37 -11 12 -17 24 -14 27 4 3 1 6 -6 6 -7 0 -9 5 -6 10 3
6 1 10 -4 10 -6 0 -11 7 -11 15 0 8 -4 15 -10 15 -5 0 -10 6 -10 13 0 7 -9 19
-20 27 -11 8 -20 20 -20 26 0 7 -12 22 -26 33 -15 12 -24 21 -20 21 3 0 -7 14
-24 31 -16 18 -30 37 -30 42 0 6 -3 7 -6 4 -4 -3 -19 7 -34 23 -15 16 -30 26
-34 23 -3 -3 -6 1 -6 10 0 9 -7 17 -16 17 -8 0 -12 5 -9 10 3 6 -2 10 -12 10
-21 0 -53 48 -46 68 3 6 -1 12 -9 12 -11 0 -11 2 0 9 8 4 14 12 14 16 0 4 -6
12 -14 16 -7 5 -8 9 -2 9 14 0 14 33 0 42 -8 6 -8 8 1 8 13 0 12 18 -1 39 -6
9 -5 12 1 8 7 -4 10 12 9 43 0 28 -5 50 -11 50 -6 0 -7 3 0 8 15 10 16 72 2
72 -8 0 -8 3 1 9 8 4 14 12 14 16 0 4 -6 12 -14 16 -7 5 -8 9 -3 9 15 0 16 40
2 40 -7 0 -6 4 3 10 13 9 13 10 0 10 -10 0 -11 3 -4 8 20 13 -3 50 -35 57 -17
4 -31 11 -31 16 0 5 -9 9 -20 9 -11 0 -20 4 -20 8 0 5 -7 9 -15 10 -8 1 -22 3
-30 4 -8 1 -15 5 -15 9 0 5 -7 5 -17 2 -9 -4 -14 -2 -10 3 3 6 -12 9 -38 9
-24 -1 -42 2 -40 6 3 4 -10 6 -27 5 -18 -1 -39 3 -47 9 -11 7 -13 7 -7 -2 4
-7 3 -13 -3 -13 -5 0 -12 6 -14 13 -4 8 -6 9 -6 0 -1 -8 -10 -9 -31 -3 -20 6
-28 5 -24 -1 3 -6 -2 -10 -12 -9 -11 1 -21 1 -24 0 -19 -7 -50 -5 -50 4 0 6
-5 3 -11 -8 -9 -15 -13 -16 -20 -5 -6 10 -9 10 -9 2 0 -7 -7 -10 -17 -6 -9 4
-14 2 -10 -3 3 -5 -2 -10 -11 -10 -34 -2 -74 -13 -90 -26 -12 -9 -14 -10 -8
-1 5 9 2 11 -8 7 -9 -3 -16 -10 -16 -15 0 -4 -7 -6 -15 -3 -10 4 -15 0 -16
-12 0 -12 -3 -14 -6 -6 -4 10 -8 10 -19 1 -8 -6 -14 -8 -14 -5 0 4 -9 2 -20
-4 -14 -8 -20 -8 -20 0 0 6 -4 8 -10 5 -5 -3 -10 -1 -10 5 0 6 -4 8 -10 5 -5
-3 -10 -1 -10 4 0 6 -5 11 -11 11 -5 0 -7 -6 -3 -12 5 -8 1 -7 -10 2 -10 8
-25 15 -34 16 -8 2 -18 6 -21 11 -3 4 -17 9 -31 11 -14 1 -31 3 -37 4 -7 1
-13 5 -13 9 0 4 -13 6 -30 5 -21 -2 -30 2 -31 13 0 11 -2 12 -6 4 -2 -7 -11
-13 -19 -13 -9 0 -13 3 -11 8 3 4 -6 8 -19 8 -15 1 -21 -2 -17 -10 5 -8 3 -8
-8 0 -21 16 -51 26 -44 14 8 -12 -5 -13 -24 -1 -9 6 -22 6 -31 1 -11 -6 -21
-5 -27 1 -8 8 -13 7 -18 0z"/>
</g>
</svg>
